<svg width="1200" height="760" viewBox="0 0 1200 760" fill="none" xmlns="http://www.w3.org/2000/svg">
  <rect width="1200" height="760" rx="26" fill="#0B1220"/>
  <rect x="48" y="48" width="1104" height="664" rx="24" fill="#111B2E"/>
  <rect x="92" y="96" width="1016" height="110" rx="18" fill="#1F2937"/>
  <rect x="130" y="134" width="270" height="34" rx="10" fill="#334155"/>
  <rect x="424" y="134" width="206" height="34" rx="10" fill="#1D4ED8"/>
  <rect x="654" y="134" width="206" height="34" rx="10" fill="#0EA5E9"/>
  <rect x="884" y="134" width="186" height="34" rx="10" fill="#10B981"/>
  <rect x="92" y="236" width="316" height="434" rx="20" fill="#1F2937"/>
  <rect x="430" y="236" width="678" height="434" rx="20" fill="#1F2937"/>
  <rect x="124" y="280" width="252" height="32" rx="10" fill="#334155"/>
  <rect x="124" y="330" width="220" height="24" rx="10" fill="#334155"/>
  <rect x="124" y="368" width="190" height="24" rx="10" fill="#334155"/>
  <rect x="124" y="406" width="238" height="24" rx="10" fill="#334155"/>
  <rect x="124" y="444" width="170" height="24" rx="10" fill="#334155"/>
  <rect x="462" y="280" width="614" height="40" rx="12" fill="#334155"/>
  <rect x="462" y="338" width="560" height="26" rx="10" fill="#334155"/>
  <rect x="462" y="378" width="430" height="26" rx="10" fill="#334155"/>
  <rect x="462" y="418" width="530" height="26" rx="10" fill="#334155"/>
  <rect x="462" y="458" width="470" height="26" rx="10" fill="#334155"/>
  <rect x="462" y="508" width="280" height="130" rx="16" fill="#1D4ED8"/>
  <rect x="766" y="508" width="280" height="130" rx="16" fill="#0EA5E9"/>
</svg>
